<?xml version="1.0" standalone="no"?>
<!DOCTYPE svg PUBLIC "-//W3C//DTD SVG 20010904//EN"
 "http://www.w3.org/TR/2001/REC-SVG-20010904/DTD/svg10.dtd">
<svg version="1.0" xmlns="http://www.w3.org/2000/svg"
 width="258.000000pt" height="195.000000pt" viewBox="0 0 258.000000 195.000000"
 preserveAspectRatio="xMidYMid meet">

<g transform="translate(0.000000,195.000000) scale(0.100000,-0.100000)"
fill="#000000" stroke="none">
<path d="M1050 1602 l-125 -88 -6 -119 c-13 -250 -10 -367 10 -411 25 -56 84
-110 139 -128 73 -25 78 -20 32 30 -80 87 -117 213 -90 309 8 28 30 65 56 94
136 152 388 120 480 -60 13 -27 24 -62 24 -79 l0 -30 -74 0 -75 0 -22 40 c-64
113 -239 72 -239 -56 0 -84 47 -134 127 -134 53 0 101 34 123 88 9 20 16 22
77 22 88 0 95 -5 82 -55 -6 -22 -18 -53 -26 -68 -13 -27 -13 -28 4 -19 29 16
129 125 148 162 26 51 31 156 11 218 -22 64 -91 143 -152 172 -90 44 -250 13
-344 -66 l-29 -25 -3 145 -3 146 -125 -88z"/>
<path d="M610 696 c0 -8 8 -20 18 -25 15 -9 15 -12 2 -21 -8 -5 -26 -10 -40
-10 -36 0 -70 -11 -70 -21 0 -5 16 -9 35 -9 45 0 44 -15 -2 -43 -31 -18 -34
-22 -18 -25 25 -5 55 -31 55 -48 0 -18 -52 -44 -86 -44 -15 0 -24 -3 -21 -7
14 -13 80 -3 114 18 l35 22 36 -36 c42 -40 55 -44 97 -33 l30 8 -51 19 c-64
24 -102 62 -85 83 7 8 10 20 6 26 -10 16 -33 12 -44 -7 -8 -15 -11 -15 -25 -4
-15 12 -15 16 -1 31 8 9 15 24 15 33 0 9 7 17 15 17 8 0 15 -7 15 -15 0 -17
56 -55 83 -55 31 0 18 21 -23 37 -49 19 -47 37 4 41 29 3 36 7 34 20 -2 13
-12 16 -40 14 -32 -3 -37 0 -40 20 -4 27 -48 40 -48 14z"/>
<path d="M1126 679 c-15 -11 -33 -19 -40 -16 -8 3 -17 -1 -20 -9 -11 -28 -7
-35 13 -24 26 13 31 13 31 -5 0 -8 -4 -15 -10 -15 -5 0 -9 -6 -7 -12 1 -7 -8
-14 -20 -16 -21 -3 -23 -9 -23 -62 0 -67 -12 -82 -35 -46 -12 17 -16 41 -13
78 2 43 0 53 -14 56 -15 3 -16 -6 -15 -75 2 -74 1 -78 -20 -81 -47 -7 -21 -22
35 -21 31 1 85 -6 118 -15 80 -21 96 -20 128 5 30 23 34 43 9 35 -10 -2 -29
-7 -41 -11 -24 -7 -24 -7 -21 77 l3 83 -32 -3 c-42 -5 -41 13 3 39 38 23 41
29 23 47 -16 16 -21 15 -52 -9z m34 -115 c0 -9 -5 -14 -12 -12 -18 6 -21 28
-4 28 9 0 16 -7 16 -16z m-60 -3 c0 -6 -4 -13 -10 -16 -5 -3 -10 1 -10 9 0 9
5 16 10 16 6 0 10 -4 10 -9z m60 -29 c0 -13 -12 -22 -22 -16 -10 6 -1 24 13
24 5 0 9 -4 9 -8z m-65 -22 c-3 -5 -10 -10 -16 -10 -5 0 -9 5 -9 10 0 6 7 10
16 10 8 0 12 -4 9 -10z m58 -40 c-8 -31 -23 -34 -23 -6 0 16 6 26 14 26 9 0
12 -7 9 -20z m-53 -6 c0 -9 -5 -14 -12 -12 -18 6 -21 28 -4 28 9 0 16 -7 16
-16z"/>
<path d="M1479 663 c-14 -38 -77 -113 -95 -113 -8 0 -14 -4 -14 -10 0 -15 33
-12 56 5 21 16 54 20 54 6 0 -5 -9 -13 -20 -16 -23 -7 -27 -25 -5 -25 8 0 15
-4 15 -10 0 -5 -7 -10 -15 -10 -11 0 -14 -7 -9 -25 5 -19 2 -25 -10 -25 -9 0
-16 -4 -16 -10 0 -14 19 -13 72 5 40 14 45 19 45 46 0 20 -4 26 -11 19 -14
-14 -26 -13 -26 4 0 8 7 17 16 20 13 5 14 9 5 20 -7 8 -10 20 -9 27 2 9 -5 13
-19 11 -25 -4 -31 16 -11 36 9 9 16 8 31 -5 18 -17 19 -17 12 22 -12 65 -28
74 -46 28z"/>
<path d="M1940 655 c-7 -14 -17 -25 -22 -25 -4 0 -8 -7 -8 -15 0 -8 5 -15 10
-15 20 0 9 -21 -31 -65 -40 -43 -48 -75 -12 -43 42 36 45 34 42 -28 -3 -47 -1
-59 11 -59 12 0 15 15 15 72 0 55 4 76 18 90 16 16 17 16 17 -6 0 -22 3 -23
40 -17 l40 6 0 -53 c0 -46 -3 -55 -22 -64 l-22 -10 26 -17 c41 -27 50 -13 46
66 l-3 70 34 12 c37 12 54 36 25 36 -10 0 -43 -5 -75 -12 -57 -12 -57 -11 -82
18 -18 21 -22 33 -15 41 11 14 4 43 -10 43 -5 0 -15 -11 -22 -25z"/>
<path d="M1610 660 c-8 -5 -24 -10 -35 -10 -19 0 -20 -7 -20 -117 0 -103 2
-118 17 -121 11 -2 23 8 33 27 17 34 36 39 55 16 17 -21 30 -19 30 5 0 12 -10
25 -25 32 -14 6 -25 14 -25 18 0 4 11 13 25 20 26 14 34 40 12 40 -8 0 -24
-11 -37 -25 -13 -14 -30 -25 -37 -25 -9 0 -4 9 11 23 19 17 26 34 28 71 3 50
-6 63 -32 46z m0 -38 c0 -13 -12 -22 -22 -16 -10 6 -1 24 13 24 5 0 9 -4 9 -8z
m0 -52 c0 -5 -7 -10 -16 -10 -8 0 -12 5 -9 10 3 6 10 10 16 10 5 0 9 -4 9 -10z
m-5 -91 c0 -7 -8 -15 -17 -17 -18 -3 -25 18 -11 32 10 10 28 1 28 -15z"/>
<path d="M986 651 c-4 -5 3 -15 15 -21 18 -10 20 -9 17 6 -4 20 -23 30 -32 15z"/>
<path d="M2016 631 c-11 -18 23 -33 59 -27 53 10 46 36 -9 36 -25 0 -47 -4
-50 -9z"/>
<path d="M348 353 c-3 -4 -4 -21 -3 -38 2 -27 5 -30 36 -30 32 0 34 2 34 35 0
32 -3 35 -32 38 -17 2 -33 -1 -35 -5z m52 -13 c0 -5 -9 -10 -20 -10 -11 0 -20
5 -20 10 0 6 9 10 20 10 11 0 20 -4 20 -10z m5 -29 c3 -5 1 -13 -5 -16 -15 -9
-43 3 -35 15 8 13 32 13 40 1z"/>
<path d="M454 325 c-18 -45 -18 -48 6 -33 16 10 24 10 40 0 31 -19 32 -15 10
28 -11 22 -25 40 -31 40 -5 0 -17 -16 -25 -35z m32 -12 c-10 -10 -19 5 -10 18
6 11 8 11 12 0 2 -7 1 -15 -2 -18z"/>
<path d="M540 320 c0 -22 5 -40 10 -40 6 0 10 12 10 26 l0 27 21 -27 c29 -36
39 -33 39 14 0 22 -4 40 -10 40 -5 0 -10 -12 -10 -26 l0 -27 -21 27 c-29 36
-39 33 -39 -14z"/>
<path d="M640 320 c0 -43 14 -54 24 -17 l6 22 15 -22 c23 -32 41 -29 20 4 -17
25 -17 27 1 40 12 9 13 13 4 13 -7 0 -22 -7 -32 -17 -17 -15 -18 -15 -18 0 0
10 -4 17 -10 17 -5 0 -10 -18 -10 -40z"/>
<path d="M822 348 c-28 -28 -3 -72 39 -66 30 4 47 33 33 56 -14 21 -55 27 -72
10z m53 -28 c0 -29 -32 -41 -41 -16 -9 24 4 48 23 44 12 -2 18 -12 18 -28z"/>
<path d="M921 318 c0 -30 3 -37 8 -24 4 11 16 23 27 27 17 7 16 8 -5 8 -28 1
-19 16 14 24 13 3 9 5 -12 6 -32 1 -33 0 -32 -41z"/>
<path d="M1080 341 c-13 -26 -3 -50 26 -57 25 -6 44 1 44 18 0 7 -5 6 -15 -2
-21 -18 -47 -5 -43 22 2 18 9 23 31 21 15 -1 25 2 22 8 -11 16 -54 10 -65 -10z"/>
<path d="M1182 348 c-28 -28 -3 -72 39 -66 30 4 47 33 33 56 -14 21 -55 27
-72 10z m53 -28 c0 -29 -32 -41 -41 -16 -9 24 4 48 23 44 12 -2 18 -12 18 -28z"/>
<path d="M1281 318 c1 -40 2 -41 9 -13 l7 30 11 -28 c12 -28 32 -29 32 -1 0 8
5 14 11 14 6 0 9 -7 6 -15 -4 -8 -2 -17 3 -20 6 -4 10 11 10 34 0 48 -21 56
-37 14 l-10 -28 -8 28 c-12 44 -35 34 -34 -15z"/>
<path d="M1390 320 c0 -44 19 -56 21 -12 1 27 1 27 8 3 9 -35 27 -37 36 -4 l8
28 7 -30 c7 -28 8 -27 9 13 1 49 -22 59 -34 15 l-7 -28 -10 28 c-15 42 -38 35
-38 -13z"/>
<path d="M1513 325 c2 -37 4 -40 32 -40 27 0 30 3 33 38 2 20 -1 37 -7 37 -5
0 -11 -15 -13 -32 -4 -45 -31 -44 -40 2 l-6 35 1 -40z"/>
<path d="M1600 320 c0 -22 5 -40 10 -40 6 0 10 12 10 28 l1 27 20 -27 c28 -38
39 -35 39 12 0 22 -4 40 -10 40 -5 0 -10 -12 -10 -26 l0 -27 -21 27 c-29 36
-39 33 -39 -14z"/>
<path d="M1700 320 c0 -22 5 -40 10 -40 6 0 10 18 10 40 0 22 -4 40 -10 40 -5
0 -10 -18 -10 -40z"/>
<path d="M1753 353 c-7 -2 -13 -18 -13 -34 0 -22 6 -30 24 -35 27 -6 46 1 46
18 0 6 -6 6 -16 -2 -12 -11 -18 -10 -31 3 -24 23 -9 51 23 43 17 -5 23 -3 19
4 -6 10 -31 12 -52 3z"/>
<path d="M1846 324 c-9 -20 -14 -39 -10 -43 4 -3 9 0 11 7 3 6 15 12 28 12 13
0 25 -6 28 -12 2 -7 7 -11 10 -7 9 8 -25 79 -38 79 -6 0 -19 -16 -29 -36z m33
-13 c-15 -5 -22 6 -14 19 6 9 10 9 16 -1 5 -8 4 -15 -2 -18z"/>
<path d="M1932 348 c9 -7 19 -26 21 -43 4 -27 4 -27 6 7 1 26 6 38 19 41 9 3
-1 5 -22 6 -34 1 -37 -1 -24 -11z"/>
<path d="M2013 320 c0 -25 2 -35 4 -22 2 12 2 32 0 45 -2 12 -4 2 -4 -23z"/>
<path d="M2052 348 c-20 -20 -14 -48 14 -60 29 -14 57 -2 62 26 8 37 -48 62
-76 34z m57 -11 c15 -19 -10 -53 -33 -44 -16 6 -22 38 -9 50 10 11 30 8 42 -6z"/>
<path d="M2150 319 c0 -24 4 -38 10 -34 6 3 10 15 10 26 0 18 3 17 25 -8 l24
-28 0 45 c-1 38 -2 40 -8 15 l-6 -29 -18 27 c-25 38 -37 34 -37 -14z"/>
<path d="M2257 353 c-13 -13 -7 -24 20 -34 19 -7 23 -13 15 -21 -8 -8 -16 -7
-28 3 -15 12 -17 12 -12 -1 7 -22 62 -20 66 2 2 12 -5 19 -22 24 -14 3 -26 10
-26 16 0 5 9 6 20 3 11 -4 20 -2 20 4 0 12 -43 15 -53 4z"/>
</g>
</svg>
