<?xml version="1.0" standalone="no"?>
<!DOCTYPE svg PUBLIC "-//W3C//DTD SVG 20010904//EN"
 "http://www.w3.org/TR/2001/REC-SVG-20010904/DTD/svg10.dtd">
<svg version="1.0" xmlns="http://www.w3.org/2000/svg"
 width="270.000000pt" height="187.000000pt" viewBox="0 0 270.000000 187.000000"
 preserveAspectRatio="xMidYMid meet">

<g transform="translate(0.000000,187.000000) scale(0.100000,-0.100000)"
fill="#000000" stroke="none">
<path d="M0 935 l0 -935 1350 0 1350 0 0 935 0 935 -1350 0 -1350 0 0 -935z
m1560 450 l0 -55 -190 0 -190 0 0 -72 c0 -78 12 -108 64 -160 83 -82 243 -52
297 55 11 22 23 69 26 108 l6 69 55 0 55 0 -5 -89 c-5 -75 -10 -98 -35 -143
-35 -62 -107 -121 -177 -144 -105 -35 -256 3 -325 82 -64 72 -75 107 -79 247
-2 70 -1 134 2 142 4 13 43 15 251 15 l245 0 0 -55z m-560 -580 c0 -11 11 -15
40 -15 22 0 40 -4 40 -10 0 -5 -9 -10 -19 -10 -10 0 -21 -7 -25 -15 -4 -10 1
-15 14 -15 18 0 20 -7 20 -80 l0 -80 -30 0 c-16 0 -30 5 -30 10 0 6 9 10 20
10 18 0 20 7 20 65 0 63 -1 65 -25 65 -16 0 -25 -6 -25 -16 0 -11 6 -14 20 -9
11 4 20 2 20 -4 0 -6 -9 -11 -20 -11 -11 0 -20 -4 -20 -10 0 -5 7 -10 15 -10
23 0 20 -60 -2 -61 -10 0 -28 -2 -40 -3 -20 -2 -23 2 -23 31 0 23 5 33 15 33
8 0 15 5 15 10 0 6 -9 10 -20 10 -11 0 -20 5 -20 10 0 6 9 10 20 10 11 0 20 5
20 10 0 6 -11 10 -25 10 -24 0 -25 -2 -25 -75 0 -60 -3 -75 -15 -75 -23 0 -15
154 8 158 18 4 21 11 9 27 -9 13 -35 13 -44 0 -9 -12 -50 24 -42 37 4 6 12 4
20 -4 18 -18 104 -12 104 8 0 8 7 14 15 14 8 0 15 -7 15 -15z m280 0 c0 -11
12 -15 43 -16 23 -1 33 -4 22 -6 -36 -9 -47 -43 -15 -43 19 0 21 -5 18 -77 -3
-77 -3 -78 -30 -81 -16 -2 -28 1 -28 7 0 6 7 11 15 11 8 0 15 3 16 8 6 69 4
82 -18 82 -13 0 -23 -4 -23 -10 0 -5 7 -10 15 -10 10 0 15 -10 15 -30 0 -29
-2 -30 -45 -30 -43 0 -45 1 -45 30 0 20 5 30 15 30 23 0 18 18 -7 23 l-23 4
23 8 c27 9 29 25 2 25 -21 0 -22 -1 -25 -65 -1 -22 -3 -50 -4 -62 0 -13 -5
-23 -11 -23 -6 0 -10 33 -10 80 0 73 2 80 20 80 21 0 25 8 12 25 -8 11 -32 13
-48 2 -6 -3 -19 2 -28 12 -10 11 -13 22 -8 25 5 3 14 0 20 -7 15 -17 102 -10
102 9 0 8 7 14 15 14 8 0 15 -7 15 -15z m240 -35 l0 -50 35 0 c34 0 35 1 35
40 0 29 4 40 15 40 11 0 15 -11 15 -38 0 -48 -14 -62 -62 -62 l-38 0 0 -51 0
-50 42 3 c41 3 42 4 43 40 0 20 5 37 10 37 6 1 10 -20 10 -46 l0 -48 -117 -3
-118 -3 0 57 c0 67 23 72 28 6 3 -42 3 -42 43 -42 l39 0 0 50 0 50 -47 0 -48
0 -3 50 c-2 39 1 50 13 50 11 0 15 -11 15 -40 0 -39 1 -40 35 -40 l35 0 0 50
c0 28 5 50 10 50 6 0 10 -22 10 -50z m210 45 c0 -10 -45 -75 -52 -75 -12 0 -9
10 13 46 18 29 39 45 39 29z m170 -15 c0 -6 -32 -10 -76 -10 -47 0 -73 4 -69
10 3 6 37 10 76 10 39 0 69 -4 69 -10z m-168 -62 c-7 -7 -12 -42 -12 -85 0
-60 -3 -73 -16 -73 -13 0 -15 9 -12 49 2 35 0 47 -8 40 -6 -5 -14 -6 -17 -3
-10 10 44 84 61 84 13 0 13 -3 4 -12z m-857 -11 c13 -10 15 -16 6 -21 -12 -8
-41 10 -41 25 0 13 13 11 35 -4z m275 -2 c21 -25 1 -31 -22 -7 -18 18 -19 22
-6 22 8 0 21 -7 28 -15z m755 6 c3 -5 -5 -11 -17 -13 -21 -3 -23 -9 -26 -70
l-3 -68 -34 0 c-19 0 -35 5 -35 10 0 6 11 10 25 10 24 0 25 3 25 61 l0 61 -50
-4 c-48 -3 -58 1 -43 15 10 11 151 8 158 -2z m-1029 -93 c-8 -49 -15 -63 -27
-51 -10 10 10 93 23 93 7 0 8 -16 4 -42z m272 -16 c-6 -23 -14 -42 -19 -42
-12 0 -11 17 2 64 15 53 31 33 17 -22z m-218 -113 c0 -4 -4 -11 -10 -14 -5 -3
-10 -14 -9 -23 0 -14 2 -13 9 3 7 16 9 12 9 -18 1 -35 -1 -38 -21 -31 -13 4
-29 7 -35 7 -7 0 -13 5 -14 11 0 6 -4 2 -9 -9 -8 -19 -9 -19 -9 3 -1 12 4 22
10 22 8 0 7 6 -2 17 -8 10 -9 14 -2 10 6 -4 14 -3 18 3 3 5 -1 10 -9 10 -9 0
-16 4 -16 8 0 5 20 8 45 8 25 0 45 -3 45 -7z m140 1 c0 -3 -6 -12 -12 -19 -10
-11 -10 -13 0 -7 9 5 12 -3 12 -29 0 -30 -3 -36 -16 -31 -9 3 -20 6 -25 6 -11
0 -8 38 6 60 7 13 6 13 -8 2 -8 -8 -18 -26 -20 -40 -2 -16 -4 -11 -3 11 1 24
-3 37 -11 37 -7 0 -13 3 -13 8 0 4 20 7 45 8 25 0 45 -3 45 -6z m417 -4 c4 -5
1 -7 -7 -4 -11 4 -16 -1 -18 -18 -1 -19 3 -24 21 -25 20 0 20 -1 3 -8 -19 -7
-19 -8 -1 -14 10 -4 15 -10 12 -13 -3 -3 -15 -1 -26 6 -15 8 -27 8 -43 0 -22
-11 -22 -10 -4 4 20 16 20 16 0 17 -16 1 -17 2 -1 6 20 5 23 23 5 23 -9 0 -8
4 2 10 13 8 12 10 -2 10 -10 0 -18 4 -18 9 0 12 66 9 77 -3z m91 -39 c-2 -17
2 -32 10 -34 7 -3 12 5 12 21 0 29 10 38 30 25 10 -6 11 -9 3 -9 -7 0 -13 -9
-13 -20 0 -25 -25 -37 -43 -21 -10 8 -17 7 -27 -2 -12 -10 -12 -9 -2 5 7 9 9
19 4 22 -5 3 -7 19 -4 36 4 25 7 28 19 19 8 -7 13 -25 11 -42z m56 44 c3 -4 3
-11 0 -14 -8 -7 -44 4 -44 14 0 12 37 12 44 0z m111 -31 c7 0 16 10 18 23 2
12 5 -2 6 -31 l1 -53 -47 3 c-36 2 -49 7 -51 21 -2 9 1 17 7 17 6 0 11 -7 11
-16 0 -20 24 -13 28 9 2 12 -3 17 -17 17 -15 0 -21 6 -20 23 1 16 2 18 6 5 7
-26 33 -22 34 5 l2 22 4 -22 c2 -13 11 -23 18 -23z m85 25 c-11 -13 -6 -15 36
-16 27 0 43 -3 37 -6 -7 -2 -13 -18 -13 -34 0 -21 -5 -29 -17 -28 -11 0 -13 3
-5 6 6 2 12 16 12 29 0 19 -5 24 -25 24 -21 0 -25 -5 -25 -32 0 -40 -9 -32
-13 13 -3 30 7 59 20 59 3 0 0 -7 -7 -15z m70 5 c0 -5 -11 -10 -25 -10 -14 0
-25 5 -25 10 0 6 11 10 25 10 14 0 25 -4 25 -10z m-572 -7 c-25 -4 -28 -9 -30
-46 l-1 -42 -4 42 c-3 29 -9 43 -21 46 -9 3 6 5 33 4 28 0 38 -2 23 -4z m-135
-20 c-13 -2 -35 -2 -50 0 -16 2 -5 4 22 4 28 0 40 -2 28 -4z m301 -1 c3 -5 -1
-9 -9 -9 -8 0 -15 4 -15 9 0 4 4 8 9 8 6 0 12 -4 15 -8z m-159 -12 c3 -6 -1
-7 -9 -4 -18 7 -21 14 -7 14 6 0 13 -4 16 -10z m-348 -32 c-3 -8 -6 -5 -6 6
-1 11 2 17 5 13 3 -3 4 -12 1 -19z"/>
<path d="M962 760 c4 -19 38 -26 49 -8 15 23 10 28 -21 26 -21 -2 -30 -7 -28
-18z"/>
<path d="M970 635 c0 -8 9 -15 20 -15 11 0 20 7 20 15 0 8 -9 15 -20 15 -11 0
-20 -7 -20 -15z"/>
<path d="M1241 759 c12 -23 42 -22 47 2 2 12 -5 16 -28 17 -27 1 -29 -1 -19
-19z"/>
<path d="M1280 721 c0 -10 36 -21 44 -14 3 3 3 10 0 14 -7 12 -44 12 -44 0z"/>
<path d="M1246 635 c4 -8 12 -15 20 -15 8 0 14 7 14 15 0 8 -9 15 -20 15 -13
0 -18 -5 -14 -15z"/>
<path d="M890 446 c0 -2 7 -7 16 -10 8 -3 12 -2 9 4 -6 10 -25 14 -25 6z"/>
<path d="M1561 474 c0 -11 3 -14 6 -6 3 7 2 16 -1 19 -3 4 -6 -2 -5 -13z"/>
<path d="M1730 450 c0 -11 7 -20 15 -20 8 0 15 9 15 20 0 11 -7 20 -15 20 -8
0 -15 -9 -15 -20z"/>
</g>
</svg>
