<?xml version="1.0" standalone="no"?>
<!DOCTYPE svg PUBLIC "-//W3C//DTD SVG 20010904//EN"
 "http://www.w3.org/TR/2001/REC-SVG-20010904/DTD/svg10.dtd">
<svg version="1.0" xmlns="http://www.w3.org/2000/svg"
 width="300.000000pt" height="168.000000pt" viewBox="0 0 300.000000 168.000000"
 preserveAspectRatio="xMidYMid meet">

<g transform="translate(0.000000,168.000000) scale(0.100000,-0.100000)"
fill="#000000" stroke="none">
<path d="M125 923 c-61 -97 -112 -180 -113 -185 -2 -4 6 -8 17 -8 13 0 29 15
47 45 l26 45 93 0 93 0 6 -45 c6 -36 11 -45 27 -45 10 0 19 6 19 13 0 6 -14
90 -32 185 -42 228 -38 229 -183 -5z m151 -60 c-2 -2 -36 -3 -75 -1 l-71 3 57
94 58 95 17 -94 c10 -52 16 -95 14 -97z"/>
<path d="M377 1093 c-22 -21 -3 -32 56 -35 l64 -3 -33 -150 c-39 -177 -39
-175 -16 -175 16 0 24 24 54 163 l35 162 66 3 c59 3 67 5 67 22 0 19 -8 20
-143 20 -79 0 -147 -3 -150 -7z"/>
<path d="M706 1083 c-6 -20 -76 -342 -76 -349 0 -3 23 -4 52 -2 l51 3 38 175
c21 96 39 178 39 183 0 4 -22 7 -49 7 -39 0 -51 -4 -55 -17z"/>
<path d="M867 1016 c-42 -47 -77 -88 -77 -93 0 -4 17 -49 37 -100 l36 -93 63
0 63 0 -47 100 -46 101 84 84 85 85 -61 0 -60 0 -77 -84z"/>
<path d="M1115 1016 c-39 -17 -70 -52 -90 -98 -17 -43 -20 -120 -5 -149 34
-62 181 -66 248 -6 30 28 28 35 -13 43 -25 4 -41 2 -53 -8 -44 -38 -102 -22
-102 27 l0 25 110 0 110 0 2 33 c4 70 -2 92 -32 120 -26 23 -39 27 -88 27 -31
-1 -70 -7 -87 -14z m103 -48 c7 -7 12 -22 12 -35 0 -21 -4 -23 -55 -23 -30 0
-55 4 -55 9 0 4 9 20 21 35 22 27 57 34 77 14z"/>
<path d="M1465 1016 c-72 -32 -110 -110 -106 -219 3 -68 90 -99 159 -57 26 16
32 17 32 5 0 -23 87 -21 94 3 5 19 56 259 56 267 0 3 -20 5 -45 5 -31 0 -47
-5 -51 -15 -5 -13 -10 -12 -31 5 -30 23 -65 25 -108 6z m114 -55 c13 -8 12
-18 -3 -73 -9 -35 -27 -73 -38 -85 -38 -41 -78 -24 -78 33 0 89 66 158 119
125z"/>
<path d="M1930 1020 c-19 -5 -42 -18 -51 -29 -22 -27 -27 -26 -21 4 4 24 2 25
-45 25 l-50 0 -29 -145 -30 -145 53 0 c29 0 53 2 53 4 0 3 7 37 15 78 18 82
40 113 90 122 20 4 36 14 39 24 9 34 16 72 14 71 -2 -1 -19 -5 -38 -9z"/>
<path d="M2147 1010 c-31 -17 -37 -17 -37 -5 0 11 -12 15 -49 15 -57 0 -51 12
-81 -145 -12 -60 -24 -118 -26 -127 -5 -16 2 -18 48 -18 l54 0 18 96 c20 104
38 134 81 134 38 0 41 -23 18 -132 l-20 -98 53 0 52 0 10 48 c40 185 40 221
-3 240 -38 17 -75 15 -118 -8z"/>
<path d="M2435 1016 c-40 -17 -82 -67 -95 -114 -13 -47 -13 -108 0 -133 33
-61 184 -66 247 -7 31 29 29 36 -12 44 -27 5 -41 2 -55 -11 -38 -34 -106 -10
-98 35 3 12 24 16 109 18 l107 3 6 41 c9 55 -9 105 -44 123 -36 18 -124 19
-165 1z m103 -48 c7 -7 12 -22 12 -35 0 -21 -4 -23 -55 -23 -30 0 -55 4 -55 9
0 4 9 20 21 35 22 27 57 34 77 14z"/>
<path d="M2702 868 l28 -152 -31 -39 -32 -39 26 -26 c25 -25 27 -25 46 -8 38
34 261 385 261 410 0 3 -23 6 -50 6 l-50 0 -47 -95 c-26 -52 -51 -95 -55 -95
-5 0 -8 26 -8 58 0 31 -3 74 -6 95 l-7 37 -52 0 -52 0 29 -152z"/>
</g>
</svg>
