<?xml version="1.0" standalone="no"?>
<!DOCTYPE svg PUBLIC "-//W3C//DTD SVG 20010904//EN"
 "http://www.w3.org/TR/2001/REC-SVG-20010904/DTD/svg10.dtd">
<svg version="1.0" xmlns="http://www.w3.org/2000/svg"
 width="225.000000pt" height="225.000000pt" viewBox="0 0 225.000000 225.000000"
 preserveAspectRatio="xMidYMid meet">

<g transform="translate(0.000000,225.000000) scale(0.100000,-0.100000)"
fill="#000000" stroke="none">
<path d="M429 1307 c-24 -13 -57 -43 -74 -66 -27 -38 -30 -51 -30 -116 0 -65
3 -78 30 -116 55 -79 170 -112 258 -76 65 28 127 121 127 192 0 71 -62 164
-127 192 -51 21 -133 17 -184 -10z m176 -6 c22 -10 54 -34 72 -54 57 -64 57
-179 0 -244 -97 -111 -262 -90 -323 41 -30 64 -30 98 0 162 45 98 155 139 251
95z"/>
<path d="M462 1292 c-9 -6 -6 -14 13 -32 24 -23 25 -27 25 -167 l0 -143 25 0
25 0 0 140 c0 138 0 141 26 167 20 20 23 28 12 34 -17 11 -109 11 -126 1z"/>
<path d="M398 1243 c-66 -69 -64 -178 6 -242 l26 -24 0 68 c0 54 -3 66 -12 57
-23 -23 -38 -13 -38 23 0 37 8 43 28 23 19 -19 23 -5 20 62 l-3 61 -27 -28z"/>
<path d="M630 1125 l0 -148 21 19 c24 21 49 73 49 101 0 13 -3 14 -12 5 -20
-20 -28 -14 -28 23 0 37 8 43 28 23 9 -9 12 -8 12 5 0 28 -25 80 -49 101 l-21
19 0 -148z"/>
<path d="M450 1107 c0 -120 3 -146 15 -151 22 -8 22 265 0 284 -13 11 -15 -5
-15 -133z"/>
<path d="M582 1238 c-18 -22 -13 -291 6 -279 9 6 12 43 10 151 -3 118 -5 140
-16 128z"/>
<path d="M860 1269 c0 -18 -5 -21 -35 -17 l-35 4 0 -48 c0 -47 11 -61 27 -36
4 7 6 25 4 40 -2 23 2 28 19 28 17 0 21 -5 20 -27 -5 -69 0 -103 15 -103 12 0
15 14 15 65 0 59 2 65 21 65 19 0 20 -4 15 -35 -5 -27 -4 -35 7 -35 17 0 30
71 15 81 -5 3 -20 4 -34 1 -19 -3 -24 0 -24 17 0 12 -6 21 -15 21 -9 0 -15 -9
-15 -21z"/>
<path d="M1004 1248 c-13 -61 -7 -138 12 -138 11 0 14 15 14 68 0 37 4 74 10
82 6 9 5 17 -3 22 -20 13 -23 10 -33 -34z"/>
<path d="M1087 1270 c3 -11 12 -20 19 -20 19 0 18 26 -2 34 -22 9 -23 8 -17
-14z"/>
<path d="M1280 1230 c0 -47 -3 -60 -15 -60 -9 0 -15 10 -15 26 0 19 -4 25 -15
20 -13 -5 -14 -2 -4 15 12 23 4 58 -10 43 -15 -15 -24 -74 -12 -74 6 0 11 -9
11 -21 0 -11 -4 -17 -10 -14 -6 3 -7 -1 -4 -10 4 -8 0 -23 -7 -32 -13 -15 -12
-15 8 -5 15 9 30 9 48 2 34 -13 92 -13 100 0 4 6 -5 10 -19 10 -16 0 -26 6
-26 15 0 9 10 15 26 15 15 0 23 4 19 10 -4 6 -15 8 -26 5 -17 -6 -19 -1 -19
54 0 48 -3 61 -15 61 -12 0 -15 -13 -15 -60z m0 -80 c0 -5 -9 -10 -20 -10 -11
0 -20 5 -20 10 0 6 9 10 20 10 11 0 20 -4 20 -10z"/>
<path d="M1410 1247 c0 -24 -6 -49 -12 -55 -10 -10 -10 -14 0 -21 9 -5 11 -17
6 -34 -5 -21 -2 -27 10 -27 12 0 16 10 16 39 0 22 5 43 10 46 8 5 7 11 -1 21
-9 11 -8 15 5 20 9 3 13 10 10 15 -3 5 -10 6 -16 3 -7 -5 -9 0 -6 14 4 15 2
22 -8 22 -10 0 -14 -13 -14 -43z"/>
<path d="M1609 1271 c15 -27 14 -31 -6 -31 -14 0 -15 -2 -5 -9 9 -5 13 -24 11
-56 -3 -52 9 -67 29 -35 8 13 9 20 1 20 -7 0 -9 20 -7 56 4 46 1 57 -15 65
-16 9 -17 8 -8 -10z"/>
<path d="M1740 1280 c0 -5 5 -10 11 -10 5 0 7 5 4 10 -3 6 -8 10 -11 10 -2 0
-4 -4 -4 -10z"/>
<path d="M1860 1272 c0 -10 -5 -23 -12 -30 -7 -7 -8 -12 -4 -12 5 0 -4 -17
-20 -37 -28 -37 -28 -38 -4 -22 52 33 91 119 55 119 -8 0 -15 -8 -15 -18z"/>
<path d="M1470 1256 c0 -13 -3 -33 -6 -43 -6 -16 -5 -16 8 -3 23 23 32 70 13
70 -9 0 -15 -9 -15 -24z"/>
<path d="M1522 1230 c3 -55 -15 -86 -33 -60 -8 12 -9 10 -4 -7 4 -15 -1 -26
-17 -37 -25 -18 -17 -22 13 -6 13 8 25 7 39 0 28 -15 49 -1 25 16 -15 11 -16
16 -5 29 7 8 10 22 6 30 -3 9 1 18 9 21 19 8 19 24 0 24 -8 0 -15 9 -15 20 0
11 -5 20 -10 20 -6 0 -9 -22 -8 -50z"/>
<path d="M1821 1259 c7 -14 14 -18 21 -11 13 13 2 32 -18 32 -12 0 -13 -4 -3
-21z"/>
<path d="M1910 1260 c-7 -14 -7 -20 0 -20 5 0 10 5 10 10 0 6 5 10 11 10 5 0
7 -4 4 -10 -3 -5 2 -10 11 -10 16 0 16 1 -1 20 -10 11 -19 20 -21 20 -2 0 -8
-9 -14 -20z"/>
<path d="M1135 1260 c-3 -5 1 -10 10 -10 9 0 13 5 10 10 -3 6 -8 10 -10 10 -2
0 -7 -4 -10 -10z"/>
<path d="M1320 1230 c0 -27 4 -40 14 -40 9 0 12 8 8 25 -3 19 0 25 14 25 18 1
18 1 0 15 -30 23 -36 18 -36 -25z"/>
<path d="M1700 1195 c0 -53 4 -75 13 -75 8 0 12 22 12 75 0 53 -4 75 -12 75
-9 0 -13 -22 -13 -75z"/>
<path d="M1125 1230 c-3 -5 1 -10 10 -10 9 0 13 5 10 10 -3 6 -8 10 -10 10 -2
0 -7 -4 -10 -10z"/>
<path d="M1945 1220 c-3 -5 1 -10 10 -10 9 0 13 5 10 10 -3 6 -8 10 -10 10 -2
0 -7 -4 -10 -10z"/>
<path d="M1659 1193 c-6 -41 1 -73 14 -73 8 0 12 18 12 50 0 54 -20 71 -26 23z"/>
<path d="M1740 1210 c0 -5 5 -10 11 -10 5 0 7 5 4 10 -3 6 -8 10 -11 10 -2 0
-4 -4 -4 -10z"/>
<path d="M1125 1200 c-3 -5 1 -10 10 -10 9 0 13 5 10 10 -3 6 -8 10 -10 10 -2
0 -7 -4 -10 -10z"/>
<path d="M1911 1203 c4 -25 -3 -54 -16 -67 -10 -10 -12 -17 -5 -21 20 -12 40
4 40 31 0 18 4 25 14 21 8 -3 17 1 20 9 4 9 -1 14 -14 14 -11 0 -20 5 -20 10
0 6 -4 10 -10 10 -5 0 -9 -3 -9 -7z"/>
<path d="M1056 1173 c-13 -13 -6 -63 9 -63 10 0 15 10 15 29 0 30 -12 46 -24
34z"/>
<path d="M1127 1174 c-14 -14 -7 -64 8 -64 9 0 15 9 15 25 0 14 0 28 1 32 1
10 -16 15 -24 7z"/>
<path d="M1850 1165 c0 -8 -9 -24 -20 -35 -26 -26 -10 -26 24 1 29 22 35 49
11 49 -8 0 -15 -7 -15 -15z"/>
<path d="M1740 1130 c0 -5 7 -10 16 -10 8 0 12 5 9 10 -3 6 -10 10 -16 10 -5
0 -9 -4 -9 -10z"/>
<path d="M802 1038 c-15 -15 -15 -41 0 -56 14 -14 54 -16 62 -3 3 4 -5 6 -18
4 -25 -5 -40 16 -29 43 4 10 14 14 29 11 13 -2 21 0 18 4 -8 13 -48 11 -62 -3z"/>
<path d="M900 1050 c-5 -17 -4 -73 1 -76 11 -6 16 40 8 62 -4 10 -8 17 -9 14z"/>
<path d="M948 1033 c-2 -10 -1 -29 3 -43 6 -20 7 -17 8 18 1 44 -4 54 -11 25z"/>
<path d="M990 1010 c0 -22 5 -40 10 -40 6 0 10 18 10 40 0 22 -4 40 -10 40 -5
0 -10 -18 -10 -40z"/>
<path d="M1031 1008 c2 -32 3 -36 6 -14 l5 28 29 -28 29 -28 -1 45 c-1 38 -2
40 -8 14 l-6 -29 -21 27 c-12 15 -25 27 -28 27 -3 0 -5 -19 -5 -42z"/>
<path d="M1135 1019 c-9 -17 -14 -36 -11 -42 3 -9 5 -9 5 1 1 6 10 12 20 12
11 0 21 -6 24 -12 2 -7 7 -10 11 -7 7 7 -19 79 -28 79 -3 0 -13 -14 -21 -31z
m25 -9 c0 -5 -4 -10 -10 -10 -5 0 -10 5 -10 10 0 6 5 10 10 10 6 0 10 -4 10
-10z"/>
<path d="M1245 1040 c-5 -9 -1 -19 13 -31 27 -22 28 -33 2 -26 -11 3 -18 1
-14 -4 8 -13 41 -11 50 3 4 6 -2 18 -13 27 -11 9 -22 23 -25 31 -4 12 -6 12
-13 0z"/>
<path d="M1320 1010 c0 -28 4 -40 14 -40 9 0 12 7 9 19 -3 13 1 21 14 24 16 4
16 5 1 6 -10 0 -18 8 -18 16 0 8 -4 15 -10 15 -5 0 -10 -18 -10 -40z"/>
<path d="M1400 1030 c-15 -28 4 -60 35 -60 13 0 26 4 29 9 3 4 -5 6 -18 4 -15
-3 -25 1 -29 11 -11 27 4 48 29 43 13 -2 21 0 18 4 -10 17 -53 9 -64 -11z"/>
<path d="M1504 1016 c1 -25 6 -41 16 -44 12 -4 13 -2 3 9 -6 8 -13 28 -16 44
-4 23 -4 20 -3 -9z"/>
<path d="M1561 1025 c0 -17 -7 -38 -13 -45 -7 -8 -5 -8 5 1 13 11 17 26 14 45
l-4 29 -2 -30z"/>
<path d="M1590 1010 c0 -22 5 -40 10 -40 6 0 10 7 10 17 0 14 2 14 20 -2 11
-10 20 -13 20 -7 0 6 -5 14 -10 17 -8 5 -7 11 0 20 7 8 9 19 5 25 -9 15 -25
12 -19 -4 3 -8 1 -17 -5 -21 -7 -3 -11 2 -11 14 0 12 -4 21 -10 21 -5 0 -10
-18 -10 -40z"/>
<path d="M1670 1010 c0 -22 5 -40 10 -40 6 0 10 18 10 40 0 22 -4 40 -10 40
-5 0 -10 -18 -10 -40z"/>
<path d="M1738 1010 c2 -22 5 -40 7 -40 2 0 5 18 7 40 2 24 -1 40 -7 40 -6 0
-9 -16 -7 -40z"/>
<path d="M1800 1010 c0 -22 5 -40 10 -40 6 0 10 18 10 40 0 22 -4 40 -10 40
-5 0 -10 -18 -10 -40z"/>
<path d="M1840 1010 c0 -28 4 -40 14 -40 9 0 12 7 9 19 -3 13 1 21 14 24 16 4
16 5 1 6 -10 0 -18 8 -18 16 0 8 -4 15 -10 15 -5 0 -10 -18 -10 -40z"/>
<path d="M1924 1038 c-4 -6 3 -19 15 -29 12 -10 20 -23 16 -29 -3 -5 -2 -10 4
-10 24 0 22 24 -3 42 -14 11 -24 24 -20 29 3 5 3 9 0 9 -3 0 -8 -5 -12 -12z"/>
<path d="M1920 980 c0 -5 5 -10 11 -10 5 0 7 5 4 10 -3 6 -8 10 -11 10 -2 0
-4 -4 -4 -10z"/>
</g>
</svg>
